<?xml version="1.0" encoding="UTF-8" standalone="no"?>
<!-- Created with Inkscape (http://www.inkscape.org/) -->

<svg
   width="1920"
   height="1080"
   viewBox="0 0 1920 1080"
   version="1.1"
   id="svg1"
   xml:space="preserve"
   inkscape:version="1.3 (0e150ed6c4, 2023-07-21)"
   sodipodi:docname="ForestSaver.svg"
   inkscape:export-filename="SlideTitlu.png"
   inkscape:export-xdpi="96"
   inkscape:export-ydpi="96"
   xmlns:inkscape="http://www.inkscape.org/namespaces/inkscape"
   xmlns:sodipodi="http://sodipodi.sourceforge.net/DTD/sodipodi-0.dtd"
   xmlns="http://www.w3.org/2000/svg"
   xmlns:svg="http://www.w3.org/2000/svg"><sodipodi:namedview
     id="namedview1"
     pagecolor="#ffffff"
     bordercolor="#000000"
     borderopacity="0.25"
     inkscape:showpageshadow="2"
     inkscape:pageopacity="0.0"
     inkscape:pagecheckerboard="0"
     inkscape:deskcolor="#d1d1d1"
     inkscape:document-units="px"
     inkscape:zoom="0.53806407"
     inkscape:cx="842.83644"
     inkscape:cy="548.26185"
     inkscape:window-width="2560"
     inkscape:window-height="1494"
     inkscape:window-x="-11"
     inkscape:window-y="-11"
     inkscape:window-maximized="1"
     inkscape:current-layer="g1" /><defs
     id="defs1" /><g
     inkscape:label="Layer 1"
     inkscape:groupmode="layer"
     id="layer1"><g
       id="g179"
       transform="matrix(13.889642,0,0,13.889642,-393.46237,-1062.601)"><rect
         style="fill:#fcfee2;fill-opacity:1;stroke:none;stroke-width:1.34532"
         id="rect1"
         width="138.23251"
         height="77.755791"
         x="28.327745"
         y="76.50312" /><g
         id="g1"><path
           style="fill:#a9c51e;stroke-width:0.149788"
           d="m 91.570926,119.64719 c -0.728329,-0.14133 -0.933711,-0.34005 -2.281148,-2.20717 -1.291995,-1.79028 -1.390434,-2.1431 -0.597941,-2.1431 1.189194,0 2.04728,-0.71294 2.04728,-1.70099 0,-1.27535 -0.610165,-1.64639 -2.868175,-1.74413 -1.645532,-0.0712 -1.732615,-0.0911 -1.777475,-0.40662 -0.06507,-0.45762 0.403398,-0.55144 2.273998,-0.45544 1.783689,0.0915 2.477515,0.40324 2.947288,1.32406 0.34794,0.68202 0.382011,1.7776 0.0738,2.37357 -0.272237,0.52645 -1.03247,1.17882 -1.514803,1.29987 -0.199607,0.0501 -0.362922,0.12408 -0.362922,0.16439 0,0.26431 1.752155,2.48775 2.049546,2.60083 0.201601,0.0767 2.107469,0.13936 4.235259,0.13936 3.266842,0 3.881862,0.0343 3.953252,0.22035 0.0465,0.12119 -0.0185,0.3234 -0.14446,0.44936 -0.19387,0.19387 -0.78478,0.22637 -3.850666,0.21179 -1.991904,-0.009 -3.874198,-0.0662 -4.182863,-0.12613 z m 12.767074,-0.0209 c -1.33463,-0.1981 -2.64624,-1.04421 -2.44235,-1.57553 0.1203,-0.31348 0.5706,-0.25011 1.18487,0.16675 1.12464,0.7632 2.41099,0.82773 3.39029,0.17008 0.38516,-0.25866 0.50034,-0.44997 0.53714,-0.89217 0.0654,-0.78619 -0.52124,-1.29533 -2.18243,-1.89401 -0.72024,-0.25956 -1.52829,-0.61963 -1.79566,-0.80014 -0.94773,-0.63986 -1.17991,-1.89035 -0.51918,-2.79619 0.75601,-1.03647 2.66831,-1.26893 4.18809,-0.50911 0.61458,0.30727 0.87523,0.52749 0.90944,0.76839 0.0722,0.50872 -0.32123,0.55808 -1.04901,0.1316 -1.61832,-0.94834 -3.56747,-0.49506 -3.56747,0.82961 0,0.54794 0.63714,1.00511 2.24321,1.60957 1.49236,0.56167 2.20316,1.06099 2.49099,1.74988 0.76326,1.82674 -0.98675,3.3977 -3.38793,3.04127 z m 33.36699,0.0533 c -0.14416,-0.0334 -0.26198,-0.14005 -0.26181,-0.23699 1.4e-4,-0.0969 -0.74622,-1.91785 -1.65863,-4.04648 -0.91242,-2.12861 -1.6206,-3.97011 -1.57375,-4.09221 0.0477,-0.1242 0.22436,-0.20087 0.40109,-0.17404 0.25781,0.0391 0.58158,0.67444 1.76067,3.45481 0.79463,1.87377 1.48448,3.40722 1.533,3.40767 0.0485,4.5e-4 0.74928,-1.54717 1.55723,-3.43914 0.80796,-1.89196 1.54341,-3.46603 1.63434,-3.49793 0.27418,-0.0962 0.53984,0.0644 0.53903,0.3258 -8.6e-4,0.33048 -3.26268,7.99132 -3.49001,8.19716 -0.0985,0.0892 -0.29698,0.13476 -0.44116,0.10135 z m 6.40771,-0.092 c -0.16999,-0.1243 -0.24098,-0.29854 -0.18311,-0.44936 0.0826,-0.21528 0.4168,-0.24634 2.65032,-0.24634 2.1432,0 2.56982,0.0366 2.64274,0.22659 0.0478,0.12462 0.003,0.32683 -0.0979,0.44935 -0.25679,0.30941 -4.59252,0.3265 -5.01202,0.0198 z m -76.826229,-0.17578 c -0.162695,-0.42397 -0.107116,-7.85462 0.0611,-8.16894 0.143642,-0.2684 0.336241,-0.28973 2.616013,-0.28973 2.239607,0 2.47427,0.0249 2.609001,0.27664 0.281761,0.52647 -0.07744,0.62209 -2.336855,0.62209 h -2.139433 l -0.03997,3.85703 c -0.03941,3.80271 -0.04445,3.85767 -0.357932,3.9024 -0.187539,0.0268 -0.356498,-0.0551 -0.411916,-0.19949 z m 9.684222,-0.16023 c -1.483962,-0.71802 -2.43859,-2.2368 -2.43859,-3.8797 0,-3.167 3.316384,-5.25982 6.184718,-3.90288 2.191015,1.03652 3.070156,3.66184 1.959024,5.85012 -0.50611,0.99673 -1.496051,1.86787 -2.446069,2.1525 -0.992677,0.29741 -2.383764,0.20349 -3.259083,-0.22004 z m 3.41105,-0.8181 c 1.667509,-0.83503 2.403892,-3.01183 1.566598,-4.63098 -0.374217,-0.72366 -1.278706,-1.46144 -2.113592,-1.72404 -1.278453,-0.40212 -2.74597,0.009 -3.584946,1.00378 -0.591563,0.70157 -0.840374,1.38726 -0.840374,2.31594 0,2.52125 2.703373,4.1715 4.972314,3.0353 z m 5.628173,0.97833 c -0.142967,-0.37256 -0.107631,-6.85709 0.03862,-7.08786 0.0704,-0.11109 0.254728,-0.17757 0.409623,-0.14774 0.266498,0.0513 0.281626,0.25124 0.281626,3.72198 0,3.62432 -0.0038,3.66828 -0.317957,3.71311 -0.187539,0.0268 -0.356497,-0.0551 -0.411916,-0.19949 z m 26.368504,0.12915 c -0.0549,-0.0549 -0.0999,-1.69807 -0.0999,-3.65144 0,-2.97425 0.0365,-3.58191 0.22468,-3.73808 0.17925,-0.14876 0.27011,-0.14876 0.44937,0 0.18768,0.15578 0.22467,0.7486 0.22467,3.601 0,1.87799 -0.0409,3.52114 -0.0909,3.65146 -0.0916,0.23874 -0.52279,0.32222 -0.70795,0.13706 z m 6.16686,-0.39057 c -0.77254,-0.39913 -0.95809,-0.56644 -0.99665,-0.89873 -0.064,-0.55117 0.34731,-0.54396 1.23933,0.0218 1.63484,1.03678 3.82594,0.53316 3.82594,-0.8794 0,-0.82794 -0.4617,-1.18775 -2.4223,-1.88777 -1.82056,-0.65001 -2.42518,-1.25518 -2.40773,-2.40993 0.0195,-1.28961 1.02903,-2.03924 2.73192,-2.02858 1.11583,0.007 1.9092,0.28203 2.4906,0.86344 0.36179,0.36179 0.37509,0.41562 0.15659,0.63412 -0.21849,0.21849 -0.30035,0.20524 -0.96414,-0.15604 -0.91288,-0.49685 -1.74322,-0.6331 -2.54405,-0.41746 -1.04796,0.28219 -1.41071,1.1958 -0.74078,1.86573 0.1894,0.18941 1.00401,0.59996 1.81024,0.91235 2.0861,0.80829 2.78837,1.49118 2.78837,2.71137 0,1.31892 -1.1503,2.15959 -2.95506,2.15959 -0.90778,0 -1.20165,-0.0717 -2.01228,-0.49044 z m 6.83499,0.30751 c -0.0431,-0.11218 0.67145,-1.98737 1.58777,-4.16711 0.91631,-2.17975 1.70048,-4.04743 1.74261,-4.15041 0.0421,-0.10298 0.19594,-0.18724 0.3418,-0.18724 0.14587,0 0.32898,0.0842 0.40691,0.18724 0.28486,0.3764 3.3401,7.84971 3.3401,8.1701 0,0.22935 -0.0907,0.33035 -0.29654,0.33035 -0.36393,0 -0.48282,-0.23402 -2.10799,-4.14879 -0.69076,-1.66396 -1.27767,-3.00365 -1.30423,-2.97709 -0.0266,0.0266 -0.71271,1.62389 -1.52478,3.54963 -1.20682,2.86183 -1.53411,3.51011 -1.79194,3.54931 -0.1735,0.0263 -0.35067,-0.0439 -0.39371,-0.15599 z m 26.54207,0.083 c -0.0549,-0.0549 -0.0999,-1.93399 -0.0999,-4.17571 0,-3.30258 0.0396,-4.10873 0.20882,-4.24915 0.16122,-0.1338 0.26363,-0.11847 0.44936,0.0673 0.20846,0.20847 0.24055,0.75692 0.24055,4.11208 0,2.12934 -0.0409,3.97814 -0.0909,4.10846 -0.0916,0.23874 -0.52279,0.32222 -0.70794,0.13707 z m 3.55298,-1.57715 c -1.09189,-1.54325 -1.24504,-1.69848 -1.75804,-1.78186 -0.65784,-0.10694 -0.92174,-0.32251 -0.79599,-0.65022 0.0691,-0.17988 0.31804,-0.23475 1.06537,-0.23475 1.19137,0 2.03646,-0.3163 2.37463,-0.88876 0.29548,-0.50021 0.31667,-0.8351 0.0934,-1.47561 -0.25334,-0.72669 -0.79052,-0.9852 -2.23562,-1.07581 -1.17155,-0.0735 -1.27695,-0.10631 -1.32036,-0.41156 -0.0628,-0.44126 0.43469,-0.56175 1.79659,-0.43517 1.17461,0.10917 1.74917,0.35221 2.20621,0.93325 1.13759,1.44621 0.41488,3.59795 -1.37778,4.10209 -0.22614,0.0636 -0.10273,0.31 0.7879,1.57328 1.08026,1.53226 1.2081,1.91374 0.6674,1.99144 -0.24127,0.0347 -0.56561,-0.32041 -1.50371,-1.64632 z m -11.41184,0.59854 c -0.12822,-0.12822 -0.17975,-1.06826 -0.17975,-3.2793 0,-2.79571 0.0253,-3.10927 0.25819,-3.19863 0.44069,-0.16911 0.64054,0.32808 0.64054,1.59353 v 1.16966 h 2.15589 c 2.17671,0 2.40422,0.0574 2.22829,0.56171 -0.0482,0.13811 -0.63189,0.18723 -2.22474,0.18723 h -2.15944 v 1.28305 c 0,1.59466 -0.24161,2.16013 -0.71898,1.68275 z m -16.56442,-1.24757 c -0.12595,-0.12596 -0.19014,-0.33031 -0.14264,-0.45411 0.071,-0.18522 0.38129,-0.21761 1.75185,-0.18289 1.4926,0.0378 1.67107,0.0714 1.71945,0.3238 0.0836,0.43638 -0.23921,0.53744 -1.72481,0.53992 -1.03625,0.002 -1.43123,-0.0541 -1.60385,-0.22672 z m -59.14505,-1.90546 c -0.183632,-0.49934 0.04495,-0.56171 2.058934,-0.56171 1.463043,0 2.014634,0.0501 2.062479,0.18724 0.174032,0.49892 -0.05651,0.5617 -2.062479,0.5617 -1.455483,0 -2.008577,-0.0503 -2.058934,-0.18723 z m 26.056158,-0.0101 c -0.192909,-0.5027 0.101634,-0.5597 2.676117,-0.51787 2.42165,0.0394 2.53524,0.0546 2.53524,0.34076 0,0.28633 -0.11351,0.30138 -2.56649,0.34049 -2.057568,0.0328 -2.582025,4.5e-4 -2.644867,-0.16338 z m 0.05688,-3.75615 c -0.133805,-0.16122 -0.118474,-0.26363 0.06724,-0.44936 0.199823,-0.19982 0.626945,-0.24055 2.522927,-0.24055 2.40433,0 2.90643,0.11885 2.70623,0.64055 -0.0883,0.23018 -0.37151,0.25818 -2.61109,0.25818 -1.965329,0 -2.549736,-0.0454 -2.685319,-0.20881 z m 14.904132,-0.0349 c -0.22641,-0.59002 0.10818,-0.65506 3.36985,-0.65506 2.82204,0 3.13488,0.0252 3.25675,0.26213 0.31052,0.60377 0.14213,0.63659 -3.26628,0.63659 -2.87879,0 -3.27793,-0.0289 -3.36032,-0.24366 z m 34.56739,0.0206 c -0.0486,-0.12657 -0.005,-0.33038 0.0966,-0.45291 0.14937,-0.17998 0.63459,-0.22233 2.5257,-0.22049 1.28745,8.7e-4 2.4317,0.0599 2.54278,0.1303 0.11108,0.0704 0.17763,0.25473 0.14787,0.40962 -0.0501,0.26074 -0.24582,0.28467 -2.63936,0.32262 -2.21239,0.035 -2.598,0.008 -2.67357,-0.18914 z"
           id="path183"
           sodipodi:nodetypes="cssscscscsscssscccsssscsssscsssssscsccsssscsssssccssssssscscssssssssssscsssscscsscsscsscccccsssssssssssscccscscssssscccsssssccsscsscccsssscssssscssscssscsccssscssccssccsscscccscscsccsscss" /><path
           style="fill:#8d7133;stroke-width:0.149788"
           d="m 48.885321,127.78122 c -0.121781,-0.12179 -0.179745,-0.82216 -0.179745,-2.17192 v -1.99217 h -0.823831 -0.823832 v 1.63541 c 0,0.89947 -0.04092,1.74203 -0.09092,1.87235 -0.132925,0.34639 -2.381413,0.34639 -2.514337,0 -0.05,-0.13032 -0.09092,-0.97288 -0.09092,-1.87235 v -1.63541 h -0.674044 c -0.474327,0 -0.762807,-0.0888 -0.973619,-0.29958 -0.401619,-0.40162 -0.383068,-0.5343 0.212861,-1.52256 0.281417,-0.46668 0.472223,-0.88796 0.424014,-0.93617 -0.04821,-0.0482 -1.186221,-0.0877 -2.528914,-0.0877 -2.324169,0 -2.449308,-0.015 -2.609054,-0.31352 -0.241589,-0.45142 -0.111285,-0.79172 0.901252,-2.35372 0.497016,-0.76672 0.903665,-1.45314 0.903665,-1.52538 0,-0.0722 -0.183236,-0.15265 -0.407191,-0.17871 -0.253001,-0.0294 -0.490399,-0.19633 -0.626928,-0.44071 -0.21296,-0.38117 -0.178102,-0.45739 1.130364,-2.47149 0.742555,-1.14301 1.399452,-2.16257 1.459772,-2.26571 0.07025,-0.12011 -0.02357,-0.23817 -0.260992,-0.32844 -0.579686,-0.22039 -0.627022,-0.66744 -0.156005,-1.47331 1.23927,-2.12028 4.002272,-6.41408 4.197777,-6.52349 0.529619,-0.29639 0.879145,0.0377 2.077687,1.98583 0.659065,1.07126 1.243357,1.95015 1.298424,1.95308 0.05506,0.003 0.246455,-0.23144 0.425304,-0.52082 0.627252,-1.01492 1.272058,-1.03775 1.819101,-0.0644 0.182556,0.32481 0.376505,0.59056 0.431001,0.59056 0.05449,0 0.525564,-0.69089 1.04682,-1.53532 0.521257,-0.84443 1.108031,-1.75439 1.303941,-2.02213 0.400782,-0.54774 0.911738,-0.638 1.271841,-0.22468 0.602464,0.69149 4.311679,6.87242 4.311679,7.18485 0,0.23542 -0.146825,0.44017 -0.433743,0.60483 l -0.433743,0.24894 0.593558,0.87406 c 1.224286,1.80283 2.221166,3.47498 2.221166,3.72572 0,0.37125 -0.410202,0.73013 -0.834531,0.73013 -0.200072,0 -0.36377,0.0296 -0.36377,0.0659 0,0.0363 0.403049,0.71213 0.895664,1.502 1.297911,2.08113 1.260485,1.98939 0.983874,2.41156 -0.236952,0.36163 -0.257672,0.36442 -2.706821,0.36442 -1.486306,0 -2.468042,0.0575 -2.468042,0.14459 0,0.0795 0.202212,0.46344 0.449362,0.85315 0.247149,0.38972 0.449363,0.85344 0.449363,1.0305 0,0.49225 -0.466753,0.81773 -1.172648,0.81773 h -0.624803 v 1.58261 c 0,2.1146 -0.03125,2.16208 -1.422982,2.16208 -1.391736,0 -1.422981,-0.0475 -1.422981,-2.16208 v -1.58261 h -0.823832 -0.823832 v 1.99217 c 0,1.34976 -0.05796,2.05013 -0.179745,2.17192 -0.103489,0.10349 -0.59915,0.17975 -1.168343,0.17975 -0.569193,0 -1.064853,-0.0762 -1.168343,-0.17975 z m 6.391837,-6.14878 c -0.09867,-0.18537 -0.52607,-0.87626 -0.949781,-1.53532 -0.423708,-0.65907 -0.81871,-1.32576 -0.87778,-1.48154 -0.157792,-0.41611 0.272726,-0.98995 0.742703,-0.98995 0.497186,0 0.498444,0.003 -1.031429,-2.33732 -0.694539,-1.0624 -1.311417,-2.0165 -1.370839,-2.12021 -0.181018,-0.31594 0.06636,-0.80169 0.501915,-0.98552 l 0.41224,-0.17399 -1.284831,-2.05507 c -0.712558,-1.13973 -1.341947,-1.99796 -1.413064,-1.92684 -0.07052,0.0705 -0.663698,0.99462 -1.318158,2.05356 -0.779129,1.26065 -1.123723,1.94552 -0.998159,1.98383 0.355026,0.10831 0.716026,0.51304 0.716026,0.80276 0,0.15815 -0.642159,1.27673 -1.42702,2.48572 l -1.427019,2.19818 0.472763,0.0974 c 0.491587,0.10127 0.727401,0.33772 0.73132,0.73334 0.0021,0.20743 -0.460799,1.01412 -1.693443,2.95141 l -0.405048,0.6366 h 5.399501 5.399502 z m -11.716037,-2.63308 c -0.136343,-0.15065 -0.247897,-0.43032 -0.247897,-0.62149 0,-0.19115 0.638987,-1.31487 1.419971,-2.49714 0.780984,-1.18227 1.333102,-2.14959 1.226929,-2.14959 -0.355752,0 -0.737122,-0.39431 -0.735648,-0.76061 8.09e-4,-0.19954 0.582934,-1.29473 1.293624,-2.43376 l 1.292162,-2.07097 -1.010996,-1.63628 c -0.556047,-0.89994 -1.045497,-1.63592 -1.087665,-1.63549 -0.08479,8.5e-4 -2.351634,3.5976 -2.482783,3.93937 -0.05071,0.13216 0.03458,0.24511 0.222114,0.29415 0.167442,0.0438 0.383399,0.25291 0.479905,0.46472 0.16215,0.35588 0.06632,0.55309 -1.262877,2.5988 l -1.438343,2.2137 0.457704,0.13832 c 0.251737,0.076 0.528066,0.29275 0.614065,0.4815 0.134134,0.29439 0.03085,0.55072 -0.726542,1.8032 -0.485596,0.80302 -0.96931,1.61426 -1.07492,1.80277 l -0.192018,0.34272 h 1.750556 c 1.686422,0 1.741474,-0.01 1.502659,-0.27392 z m 16.176512,0.0543 c -0.04635,-0.12078 -0.495781,-0.86624 -0.998735,-1.65657 -1.178982,-1.85261 -1.167231,-2.10919 0.124313,-2.71434 0.02584,-0.0121 -0.563953,-0.96205 -1.310641,-2.11098 -1.561572,-2.40279 -1.665513,-2.81962 -0.784393,-3.14556 0.330333,-0.12221 0.304434,-0.18268 -0.902953,-2.10874 -0.683671,-1.09061 -1.299693,-1.99787 -1.368937,-2.01613 -0.135946,-0.0358 -2.02692,2.859 -2.038821,3.12119 -0.004,0.0872 0.53364,1.03091 1.194668,2.09703 0.661027,1.06611 1.241493,2.09092 1.28992,2.27735 0.09605,0.36974 -0.151079,0.75936 -0.58298,0.91913 -0.238165,0.0881 -0.08882,0.38535 1.155653,2.30013 0.786042,1.20942 1.429165,2.28723 1.429165,2.39513 0,0.10789 -0.104929,0.34598 -0.233175,0.52907 l -0.233175,0.33291 h 1.672182 c 1.407697,0 1.658853,-0.0347 1.587909,-0.21962 z"
           id="path181" /></g></g></g></svg>
